<svg width="24" height="24" fill="none" xmlns="http://www.w3.org/2000/svg">
  <path d="M20.557 5.595 18.061 3.1a1.612 1.612 0 0 0-2.288 0l-2.688 2.683a1.618 1.618 0 0 0 0 2.293l2.1 2.102a9.506 9.506 0 0 1-2.025 2.983 9.522 9.522 0 0 1-2.981 2.03l-2.1-2.102a1.613 1.613 0 0 0-2.288 0l-2.69 2.683a1.618 1.618 0 0 0 0 2.293l2.494 2.493a2.806 2.806 0 0 0 2.423.78c3.103-.51 6.183-2.162 8.67-4.647 2.484-2.489 4.134-5.569 4.65-8.674a2.794 2.794 0 0 0-.781-2.423Zm-.881 2.144c-.457 2.763-1.943 5.52-4.181 7.758-2.239 2.238-4.993 3.724-7.756 4.181a1.102 1.102 0 0 1-.956-.31l-2.45-2.448 2.597-2.6 2.808 2.813.021.02.507-.187a11.28 11.28 0 0 0 6.696-6.698l.187-.506-2.831-2.83 2.597-2.598 2.45 2.449c.252.253.37.61.31.956Z" fill="#2B2423"/>
</svg>
