<svg width="64" height="64" fill="none" xmlns="http://www.w3.org/2000/svg">
  <path d="M30.756 43.847a4.02 4.02 0 0 1-1.603-1.185 8.545 8.545 0 0 1-1.115-1.742 12.346 12.346 0 0 1-.732-2.022 42.17 42.17 0 0 1-.453-1.916c-.07-.302-.151-.767-.244-1.394a63.72 63.72 0 0 0-.279-2.196c-.093-.813-.186-1.66-.279-2.543a61.653 61.653 0 0 0-.313-2.51l-.244-2.195a39.513 39.513 0 0 1-.14-1.429l-3.38 13.73-.174.314c-.093.163-.21.349-.349.558-.116.209-.267.406-.453.592a1.728 1.728 0 0 1-.522.418.8.8 0 0 1-.523.035c-.163-.046-.314-.197-.453-.453l-7.353-14.706-1.952 14.706c-.046.232-.15.395-.313.488a.679.679 0 0 1-.523 0 1.732 1.732 0 0 1-.453-.383.756.756 0 0 1-.174-.593l2.474-18.12c0-.094.058-.198.174-.314.14-.116.29-.21.453-.28a1.23 1.23 0 0 1 .488-.104c.163-.023.267.035.314.175l7.736 17.145 4.495-17.145c.024-.047.128-.186.314-.419.186-.255.395-.488.627-.697.233-.209.442-.36.628-.453.209-.093.348-.046.418.14l.453 1.951c.07 1.278.128 2.765.174 4.46.046 1.697.151 3.44.314 5.228.162 1.789.43 3.543.801 5.262.395 1.72.964 3.264 1.708 4.635.07.093.162.22.278.383.117.163.256.314.419.453.162.14.313.267.453.384.162.139.267.22.313.244.186.092.43.104.732.034.325-.07.662-.127 1.01-.174.35-.023.674 0 .976.07.302.093.535.279.697.557.163.326.175.57.035.732-.116.186-.313.325-.592.418-.279.093-.616.14-1.01.14a8.905 8.905 0 0 1-1.116 0 7.103 7.103 0 0 1-1.045-.14 6.02 6.02 0 0 1-.697-.14ZM35.948 35.947c.282.197.453.465.514.805.06.34-.009.65-.206.932a1.202 1.202 0 0 1-.804.514c-.34.06-.65-.008-.932-.206a1.201 1.201 0 0 1-.514-.804c-.06-.34.008-.65.205-.932.197-.282.465-.453.805-.514.339-.06.65.008.932.205ZM39.003 30.51c.406 4.504 17.892 5.029 17.112 6.68-.895 1.897-18.526-2.012-18.932-6.517-.405-4.505 14.886-11.442 17.462-9.796 1.736 1.109-16.048 5.127-15.642 9.632Z" fill="#2B2423"/>
  <path d="M40.313 24.612c0-.087.071-.158.159-.158h1.267c.088 0 .159.07.159.158v12.356a.792.792 0 0 1-1.585 0V24.611ZM41.15 20.019h1.139l.175-.202.087-.302.088-.202.175-.605.263-.806.088-.605v-.504l-.088-.302-.175-.303-.175-.302-.263-.202-.35-.1H40.36l-.437.1-.439.202-.175.201-.175.303-.088.403v.504l.088.605.263.806.175.605.088.303.175.302.175.1h1.14Z" fill="#2B2423"/>
  <path d="m41.105 24.137.552-.007a.254.254 0 0 0 .248-.216l.138-.925.153-2.384a.254.254 0 0 0-.253-.27h-1.677a.253.253 0 0 0-.253.27l.152 2.365a.25.25 0 0 0 .006.039l.208.923a.253.253 0 0 0 .243.198l.483.007Z" stroke="#2B2423" stroke-width=".243"/>
  <circle cx="32" cy="32" r="31.676" stroke="#645E58" stroke-width=".648"/>
  <path d="M36.822 44.027v-3.194h1.255c.203 0 .373.042.51.125a.82.82 0 0 1 .31.321c.07.13.105.268.105.413a.773.773 0 0 1-.13.452.642.642 0 0 1-.349.257l-.004-.108c.204.05.36.148.47.295a.82.82 0 0 1 .164.508c0 .187-.038.35-.113.49a.787.787 0 0 1-.326.325 1.071 1.071 0 0 1-.517.116h-1.375Zm.47-.441h.834a.64.64 0 0 0 .282-.06.465.465 0 0 0 .27-.44.523.523 0 0 0-.064-.259.445.445 0 0 0-.182-.184.539.539 0 0 0-.277-.069h-.863v1.012Zm0-1.448h.779a.509.509 0 0 0 .23-.051.404.404 0 0 0 .164-.151.445.445 0 0 0 .063-.24.407.407 0 0 0-.125-.306.459.459 0 0 0-.332-.12h-.779v.867Zm4.252 1.955a1.24 1.24 0 0 1-.627-.155 1.104 1.104 0 0 1-.42-.437 1.378 1.378 0 0 1-.148-.652c0-.261.049-.488.146-.68.1-.193.237-.341.413-.446.176-.105.38-.158.614-.158a1.1 1.1 0 0 1 .623.171c.172.112.3.273.384.481.086.209.12.456.102.743h-.464v-.168c-.003-.278-.056-.484-.16-.617-.101-.133-.257-.2-.467-.2-.232 0-.407.074-.523.22-.117.147-.176.358-.176.634 0 .264.059.468.175.612.117.144.286.215.506.215.145 0 .27-.032.375-.097a.666.666 0 0 0 .248-.284l.455.144c-.093.215-.234.38-.424.5-.189.116-.4.174-.632.174Zm-.853-1.133V42.6h1.71v.361h-1.71Zm4.002 1.133a.924.924 0 0 1-.446-.097.694.694 0 0 1-.273-.262.728.728 0 0 1-.09-.36c0-.12.02-.227.064-.319a.616.616 0 0 1 .19-.232 1.02 1.02 0 0 1 .31-.158c.107-.03.228-.058.362-.082.135-.023.276-.046.424-.066l.443-.062-.168.093c.003-.188-.037-.327-.12-.417-.081-.092-.222-.138-.421-.138-.126 0-.241.03-.346.089a.468.468 0 0 0-.22.288l-.432-.133a.896.896 0 0 1 .337-.49c.167-.121.389-.182.665-.182.215 0 .4.037.559.111a.69.69 0 0 1 .35.346.729.729 0 0 1 .071.248c.01.088.014.182.014.282v1.475h-.41v-.548l.08.071c-.1.183-.226.32-.38.41-.152.089-.34.133-.563.133Zm.082-.379a.77.77 0 0 0 .34-.069.668.668 0 0 0 .227-.18.56.56 0 0 0 .114-.225.794.794 0 0 0 .042-.24c.004-.089.006-.16.006-.213l.151.056-.399.06c-.12.017-.228.035-.326.053a1.95 1.95 0 0 0-.257.06.867.867 0 0 0-.171.08.391.391 0 0 0-.117.113.338.338 0 0 0 .004.335.327.327 0 0 0 .142.124.555.555 0 0 0 .244.046Zm3.557.377a.97.97 0 0 1-.417-.08.788.788 0 0 1-.275-.208 1 1 0 0 1-.16-.284 1.46 1.46 0 0 1-.075-.3 1.931 1.931 0 0 1-.02-.257v-1.33h.47v1.177c0 .094.008.19.022.289a.933.933 0 0 0 .09.272.544.544 0 0 0 .183.205c.08.051.184.077.31.077a.69.69 0 0 0 .236-.04.493.493 0 0 0 .193-.133c.056-.06.1-.14.13-.24.033-.098.05-.219.05-.36l.287.108c0 .217-.04.41-.122.576a.92.92 0 0 1-.35.389 1.04 1.04 0 0 1-.552.14Zm.792-.064v-.692h-.056v-1.703h.468v2.395h-.412Zm3.292 0a1.99 1.99 0 0 1-.443.038 1.006 1.006 0 0 1-.388-.085.53.53 0 0 1-.257-.244.713.713 0 0 1-.085-.301c-.003-.104-.004-.22-.004-.35v-2.118h.466v2.095c0 .096 0 .18.002.25.003.072.018.132.046.18a.316.316 0 0 0 .253.158c.117.012.254.007.41-.016v.393Zm-1.636-2.023v-.372h1.636v.372H50.78Zm3.353 3.087.464-1.261.006.372-1.044-2.57h.483l.78 1.985h-.141l.745-1.985h.47l-1.322 3.46h-.44Z" fill="#2B2423"/>
</svg>
