<svg aria-hidden="true" style="position:absolute;width:0;height:0;overflow:hidden" xmlns="http://www.w3.org/2000/svg">
  <defs>
    <symbol id="icon-about-rectangle" viewBox="0 0 32 32">
      <path fill="#645e58" style="fill:var(--color1, #645e58)" d="M0 4.267V0h32v32h-4.267V4.267H0z"/>
    </symbol>
    <symbol id="icon-Logo" viewBox="0 0 32 32">
      <path d="M15.378 21.924a2.035 2.035 0 0 1-.799-.589l-.003-.004a4.255 4.255 0 0 1-.546-.846l-.011-.025a5.793 5.793 0 0 1-.356-.968l-.01-.043c-.052-.172-.13-.494-.201-.819l-.025-.139a10.058 10.058 0 0 1-.122-.697 29.14 29.14 0 0 0-.161-1.273l.021.175c-.046-.407-.093-.83-.139-1.271a29.092 29.092 0 0 0-.177-1.424l.021.169-.122-1.098c-.02-.15-.045-.396-.065-.644l-.005-.071-1.69 6.865-.087.157a4.745 4.745 0 0 1-.175.279 1.323 1.323 0 0 1-.226.296.88.88 0 0 1-.256.207l-.005.002a.395.395 0 0 1-.264.017l.003.001c-.082-.023-.157-.099-.226-.227l-3.676-7.353-.976 7.353c-.023.116-.075.198-.157.244a.347.347 0 0 1-.264-.001l.002.001a.867.867 0 0 1-.225-.19l-.001-.001a.376.376 0 0 1-.086-.298v.002l1.237-9.06c0-.047.029-.099.087-.157a.934.934 0 0 1 .226-.14.622.622 0 0 1 .244-.052c.082-.011.133.018.157.088l3.868 8.573 2.248-8.572c.012-.024.064-.093.157-.21.093-.127.197-.244.313-.348s.221-.18.314-.226c.104-.046.174-.023.209.07l.226.976c.035.639.064 1.383.087 2.23s.075 1.72.157 2.614c.081.895.215 1.771.4 2.631.197.86.482 1.632.854 2.317.035.047.081.11.139.192s.128.157.21.227c.081.07.156.134.226.192.081.07.133.11.156.122.093.046.215.052.366.017.163-.035.331-.064.505-.087.175-.012.337 0 .488.035a.6.6 0 0 1 .349.279c.081.163.087.285.017.366-.058.093-.157.163-.296.209s-.308.07-.505.07a4.003 4.003 0 0 1-.571 0l.013.001a3.707 3.707 0 0 1-.546-.074l.023.004a3.019 3.019 0 0 1-.37-.075l.021.005zm2.596-3.95c.141.099.227.233.257.402s-.005.325-.103.466a.604.604 0 0 1-.398.257h-.003a.599.599 0 0 1-.466-.103.604.604 0 0 1-.257-.398v-.003c-.03-.17.004-.325.102-.466s.233-.227.402-.257a.603.603 0 0 1 .466.102zm1.528-2.719c.203 2.252 8.946 2.514 8.556 3.34-.448.948-9.263-1.006-9.466-3.258s7.443-5.721 8.731-4.898c.868.554-8.024 2.563-7.821 4.816z"/>
      <path d="M20.157 12.306a.08.08 0 0 1 .079-.079h.634c.044 0 .079.035.079.079v6.178a.396.396 0 1 1-.792 0v-6.178zm.418-2.297h.57l.087-.101.044-.151.044-.101.087-.303.131-.403.044-.303v-.252l-.044-.151-.087-.152-.087-.151-.131-.101-.175-.05h-.877l-.218.05-.22.101-.087.101-.087.152-.044.201v.252l.044.303.131.403.087.303.044.152.087.151.087.05h.57z"/>
      <path fill="none" stroke="#645e58" style="stroke:var(--color1, #645e58)" stroke-width=".324" d="M31.838 16c0 8.747-7.091 15.838-15.838 15.838S.162 24.747.162 16 7.253.162 16 .162 31.838 7.253 31.838 16z"/>
      <path d="M18.411 22.014v-1.597h.628a.48.48 0 0 1 .255.063.417.417 0 0 1 .154.158l.001.002a.429.429 0 0 1 .052.206v.011c0 .08-.024.154-.066.216l.001-.001a.324.324 0 0 1-.172.128l-.002.001-.002-.054a.399.399 0 0 1 .317.394v.008c0 .093-.019.175-.056.245s-.093.125-.161.161l-.002.001a.525.525 0 0 1-.243.058h-.016.001-.688zm.235-.221h.423a.313.313 0 0 0 .137-.031l-.002.001a.234.234 0 0 0 .135-.211v-.013a.261.261 0 0 0-.033-.127l.001.001a.22.22 0 0 0-.09-.091l-.001-.001a.265.265 0 0 0-.132-.035h-.438v.506zm0-.724h.394c.04 0 .079-.009.113-.026l-.002.001a.196.196 0 0 0 .081-.075v-.001a.22.22 0 0 0 .032-.114v-.012a.201.201 0 0 0-.063-.147.23.23 0 0 0-.155-.06h-.012.001-.39v.433zm2.126.978h-.013a.625.625 0 0 1-.304-.079l.003.002a.563.563 0 0 1-.209-.216l-.001-.003a.676.676 0 0 1-.074-.311v-.016.001c0-.131.024-.244.073-.34a.55.55 0 0 1 .513-.302h.017a.55.55 0 0 1 .297.087l-.002-.001c.086.056.15.137.192.241s.06.228.051.372h-.232v-.084c-.002-.139-.028-.242-.08-.308-.05-.067-.128-.1-.233-.1-.116 0-.203.037-.262.11s-.088.179-.088.317c0 .132.029.234.087.306s.143.108.253.108a.347.347 0 0 0 .188-.049.34.34 0 0 0 .123-.14l.001-.002.227.072a.542.542 0 0 1-.212.25.594.594 0 0 1-.316.087zm-.426-.567v-.18h.855v.18h-.855zm2 .567h-.016a.46.46 0 0 1-.209-.05l.003.001a.352.352 0 0 1-.136-.129l-.001-.002a.364.364 0 0 1-.045-.175v-.005c0-.06.01-.113.032-.16s.055-.086.094-.115l.001-.001a.527.527 0 0 1 .151-.078l.004-.001c.053-.015.114-.029.181-.041s.138-.023.212-.033l.221-.031-.084.047c.002-.094-.018-.163-.06-.209s-.111-.069-.21-.069a.353.353 0 0 0-.173.044.238.238 0 0 0-.11.142v.002l-.216-.067a.455.455 0 0 1 .167-.244l.001-.001a.553.553 0 0 1 .332-.091c.108 0 .2.018.279.055a.35.35 0 0 1 .174.171l.001.002a.346.346 0 0 1 .035.122v.002c.005.044.007.091.007.141v.738h-.205v-.274l.04.035a.519.519 0 0 1-.19.205.555.555 0 0 1-.282.067zm.041-.19h.01a.38.38 0 0 0 .162-.036l-.002.001a.331.331 0 0 0 .113-.089v-.001a.286.286 0 0 0 .057-.111v-.002a.382.382 0 0 0 .021-.12l.003-.107.076.028-.2.03c-.06.009-.114.017-.163.026a.956.956 0 0 0-.135.032l.007-.002a.412.412 0 0 0-.087.041l.002-.001a.207.207 0 0 0-.058.056v.001a.166.166 0 0 0 .003.168v-.001a.168.168 0 0 0 .07.062h.001a.269.269 0 0 0 .111.023h.011-.001zm1.779.189h-.015a.5.5 0 0 1-.197-.041l.003.001a.403.403 0 0 1-.137-.103v-.001a.501.501 0 0 1-.079-.139l-.001-.003a.76.76 0 0 1-.037-.146v-.004a.993.993 0 0 1-.01-.128v-.666h.235v.588c0 .047.004.095.011.145a.474.474 0 0 0 .046.139l-.001-.003a.272.272 0 0 0 .091.102l.001.001a.28.28 0 0 0 .155.038h.002a.333.333 0 0 0 .118-.021l-.002.001a.254.254 0 0 0 .096-.066c.028-.03.05-.07.065-.12a.559.559 0 0 0 .025-.18l.143.054c0 .108-.02.205-.061.288a.456.456 0 0 1-.173.193l-.002.001a.516.516 0 0 1-.261.07h-.016.001zm.396-.032v-.346h-.028v-.852h.234v1.198h-.206zm1.646 0a.992.992 0 0 1-.195.019h-.028.001a.498.498 0 0 1-.197-.044l.003.001a.264.264 0 0 1-.128-.121l-.001-.001a.353.353 0 0 1-.042-.15v-.001c-.002-.052-.002-.11-.002-.175v-1.059h.233v1.047l.001.125a.199.199 0 0 0 .023.09.158.158 0 0 0 .126.079.864.864 0 0 0 .205-.008v.197zm-.818-1.012v-.186h.818v.186h-.818zm1.677 1.544.232-.631.003.186-.522-1.285h.241l.39.992h-.07l.372-.992h.235l-.661 1.73h-.22z"/>
    </symbol>
    <symbol id="icon-instagram" viewBox="0 0 32 32">
      <path d="M16 9.591h-.009a6.4 6.4 0 0 0-6.4 6.4v.019a6.4 6.4 0 0 0 6.4 6.4h.019a6.4 6.4 0 0 0 6.4-6.4V16v.001-.009a6.4 6.4 0 0 0-6.4-6.4H16h.001zm0 10.574A4.173 4.173 0 0 1 11.835 16 4.173 4.173 0 0 1 16 11.835 4.173 4.173 0 0 1 20.165 16 4.173 4.173 0 0 1 16 20.165zm6.672-12.33a1.497 1.497 0 1 0 0 2.994h.006a1.493 1.493 0 0 0 1.374-2.079l.004.01a1.499 1.499 0 0 0-1.382-.924h-.002zM28.493 16c0-1.725.016-3.435-.08-5.156-.097-2-.553-3.775-2.016-5.237-1.467-1.467-3.237-1.92-5.237-2.016-1.725-.097-3.435-.081-5.156-.081-1.725 0-3.435-.016-5.157.081-2 .097-3.775.553-5.237 2.016-1.467 1.465-1.919 3.237-2.016 5.237-.096 1.725-.08 3.435-.08 5.156s-.016 3.435.08 5.156c.097 2 .553 3.775 2.016 5.237 1.467 1.467 3.237 1.92 5.237 2.016 1.725.097 3.435.081 5.156.081 1.725 0 3.435.016 5.157-.081 2-.097 3.773-.553 5.237-2.016 1.465-1.465 1.919-3.237 2.016-5.237.1-1.721.08-3.431.08-5.156zm-2.749 7.369a3.993 3.993 0 0 1-.943 1.43l-.001.001c-.44.44-.863.716-1.431.944-1.644.653-5.547.507-7.369.507-1.821 0-5.728.147-7.372-.504a3.993 3.993 0 0 1-1.43-.943l-.001-.001a4.012 4.012 0 0 1-.935-1.404l-.009-.027C5.602 21.725 5.75 17.821 5.75 16s-.147-5.728.503-7.372c.228-.568.503-.993.944-1.431.394-.403.87-.724 1.402-.934l.027-.01c1.644-.651 5.551-.503 7.373-.503 1.821 0 5.727-.147 7.371.503.569.227.993.503 1.431.944.404.394.725.871.935 1.404l.009.027c.651 1.644.504 5.551.504 7.372s.147 5.725-.507 7.369z"/>
    </symbol>
    <symbol id="icon-mail" viewBox="0 0 32 32">
      <path d="M29 5H3a1 1 0 0 0-1 1v20a1 1 0 0 0 1 1h26a1 1 0 0 0 1-1V6a1 1 0 0 0-1-1zm-1.251 3.463v16.288H4.25V8.463l-.861-.672 1.227-1.579 1.339 1.04h20.097l1.337-1.04 1.227 1.579-.864.672zm-1.698-1.214L16 15.062 4.612 6.209 3.385 7.788l.861.672 10.675 8.299a1.744 1.744 0 0 0 2.15-.003l-.004.003 11.544-8.968-1.227-1.579-1.336 1.039z"/>
    </symbol>
    <symbol id="icon-phone" viewBox="0 0 32 32">
      <path d="m27.409 7.46-3.328-3.327c-.39-.392-.929-.635-1.525-.635s-1.136.243-1.525.635L17.447 7.71c-.392.391-.635.931-.635 1.529s.243 1.138.635 1.529l2.8 2.803a12.726 12.726 0 0 1-2.7 3.977 12.71 12.71 0 0 1-3.893 2.675l-.081.032-2.8-2.803c-.39-.392-.929-.634-1.525-.634s-1.136.243-1.525.634l-3.587 3.577c-.392.391-.635.931-.635 1.529s.243 1.138.635 1.529l3.325 3.324a3.728 3.728 0 0 0 3.252 1.037l-.022.003c4.137-.68 8.244-2.883 11.56-6.196 3.312-3.319 5.512-7.425 6.2-11.565a3.711 3.711 0 0 0-1.042-3.231zm-1.174 2.859c-.609 3.684-2.591 7.36-5.575 10.344-2.985 2.984-6.657 4.965-10.341 5.575a1.464 1.464 0 0 1-1.275-.413l-3.267-3.264 3.463-3.467 3.772 3.777.676-.249c4.153-1.557 7.372-4.777 8.894-8.827l.034-.104.249-.675-3.775-3.773 3.463-3.464 3.267 3.265c.336.337.493.813.413 1.275z"/>
    </symbol>
    <symbol id="icon-telegram" fill="none" viewBox="0 0 24 24">
      <path d="M21 5L2 12.5L9 13.5M21 5L18.5 20L9 13.5M21 5L9 13.5M9 13.5V19L12.249 15.723" stroke="#2B2423" stroke-width="1.5" stroke-linecap="round" stroke-linejoin="round"/>
    </symbol>
    <symbol id="icon-burger" viewBox="0 0 24 24">
     <path d="M21.1875 3.75H2.8125C2.70937 3.75 2.625 3.83437 2.625 3.9375V5.4375C2.625 5.54062 2.70937 5.625 2.8125 5.625H21.1875C21.2906 5.625 21.375 5.54062 21.375 5.4375V3.9375C21.375 3.83437 21.2906 3.75 21.1875 3.75ZM21.1875 18.375H2.8125C2.70937 18.375 2.625 18.4594 2.625 18.5625V20.0625C2.625 20.1656 2.70937 20.25 2.8125 20.25H21.1875C21.2906 20.25 21.375 20.1656 21.375 20.0625V18.5625C21.375 18.4594 21.2906 18.375 21.1875 18.375ZM21.1875 11.0625H2.8125C2.70937 11.0625 2.625 11.1469 2.625 11.25V12.75C2.625 12.8531 2.70937 12.9375 2.8125 12.9375H21.1875C21.2906 12.9375 21.375 12.8531 21.375 12.75V11.25C21.375 11.1469 21.2906 11.0625 21.1875 11.0625Z" fill="#2B2423"/>
    </symbol>
    <symbol id="icon-heart"  viewBox="0 0 24 24">
<path d="M6.45749 1.6001C5.18024 1.60002 3.93166 1.97872 2.86964 2.68828C1.80763 3.39785 0.979882 4.40641 0.491091 5.58643C0.00229985 6.76645 -0.125583 8.06491 0.123616 9.31762C0.372815 10.5703 0.987902 11.721 1.89109 12.6241L11.4335 22.1665C11.5078 22.241 11.5961 22.3001 11.6933 22.3404C11.7905 22.3808 11.8947 22.4015 11.9999 22.4015C12.1051 22.4015 12.2093 22.3808 12.3065 22.3404C12.4037 22.3001 12.492 22.241 12.5663 22.1665L22.1087 12.6225C23.287 11.405 23.9395 9.77309 23.9257 8.07881C23.9118 6.38452 23.2326 4.76357 22.0345 3.56549C20.8364 2.36741 19.2155 1.6882 17.5212 1.67432C15.8269 1.66044 14.195 2.31301 12.9775 3.4913L11.9999 4.4673L11.0239 3.4913C9.81199 2.28049 8.1706 1.60028 6.45749 1.6001Z" fill="#2B2423"/>
</symbol>
  </defs>
</svg>
